<?xml version="1.0" encoding="UTF-8" standalone="no"?>
<!-- Created with Inkscape (http://www.inkscape.org/) -->

<svg
   version="1.1"
   id="svg1483"
   xml:space="preserve"
   width="1056"
   height="264.69199"
   viewBox="0 0 1056 264.69199"
   sodipodi:docname="inesproc.svg"
   inkscape:version="1.1.1 (3bf5ae0d25, 2021-09-20)"
   inkscape:export-filename="J:\PROYECTOS\2022_INESPROC_SistemaPresiones\03_App\test1\img\inesproc.png"
   inkscape:export-xdpi="600"
   inkscape:export-ydpi="600"
   xmlns:inkscape="http://www.inkscape.org/namespaces/inkscape"
   xmlns:sodipodi="http://sodipodi.sourceforge.net/DTD/sodipodi-0.dtd"
   xmlns="http://www.w3.org/2000/svg"
   xmlns:svg="http://www.w3.org/2000/svg"
   xmlns:rdf="http://www.w3.org/1999/02/22-rdf-syntax-ns#"
   xmlns:cc="http://creativecommons.org/ns#"
   xmlns:dc="http://purl.org/dc/elements/1.1/"><metadata
     id="metadata1489"><rdf:RDF><cc:Work
         rdf:about=""><dc:format>image/svg+xml</dc:format><dc:type
           rdf:resource="http://purl.org/dc/dcmitype/StillImage" /></cc:Work></rdf:RDF></metadata><defs
     id="defs1487"><linearGradient
       id="linearGradient1983"
       inkscape:swatch="solid"><stop
         style="stop-color:#1f3c90;stop-opacity:1;"
         offset="0"
         id="stop1981" /></linearGradient><clipPath
       clipPathUnits="userSpaceOnUse"
       id="clipPath1501"><path
         d="M 0,198.519 H 792 V 0 H 0 Z"
         id="path1499"
         inkscape:connector-curvature="0" /></clipPath><clipPath
       clipPathUnits="userSpaceOnUse"
       id="clipPath1509"><path
         d="M 17.0767,144.064 H 45.6356 V 50.6395 H 17.0767 Z"
         id="path1507"
         inkscape:connector-curvature="0" /></clipPath><clipPath
       clipPathUnits="userSpaceOnUse"
       id="clipPath1523"><path
         d="M 53.3283,144.064 H 81.8871 V 50.6395 H 53.3283 Z"
         id="path1521"
         inkscape:connector-curvature="0" /></clipPath><clipPath
       clipPathUnits="userSpaceOnUse"
       id="clipPath1537"><path
         d="M 92.4689,144.064 H 121.028 V 50.6395 H 92.4689 Z"
         id="path1535"
         inkscape:connector-curvature="0" /></clipPath></defs><sodipodi:namedview
     pagecolor="#ffffff"
     bordercolor="#666666"
     borderopacity="1"
     objecttolerance="10"
     gridtolerance="10"
     guidetolerance="10"
     inkscape:pageopacity="0"
     inkscape:pageshadow="2"
     inkscape:window-width="1920"
     inkscape:window-height="1001"
     id="namedview1485"
     showgrid="true"
     inkscape:zoom="0.1767767"
     inkscape:cx="-152.73506"
     inkscape:cy="-121.62236"
     inkscape:window-x="-9"
     inkscape:window-y="-9"
     inkscape:window-maximized="1"
     inkscape:current-layer="g1491"
     inkscape:snap-bbox="false"
     inkscape:snap-global="true"
     inkscape:snap-others="false"
     inkscape:snap-grids="true"
     inkscape:pagecheckerboard="0"><inkscape:grid
       type="xygrid"
       id="grid2005" /></sodipodi:namedview><g
     id="g1491"
     inkscape:groupmode="layer"
     inkscape:label="Logo inesproc_Envio"
     transform="matrix(1.3333333,0,0,-1.3333333,0,264.692)"><g
       id="g1503"
       transform="matrix(1.0000228,0,0,1,-3.891032e-4,0)"><g
         id="g1505" /><g
         id="g1515"><g
           clip-path="url(#clipPath1509)"
           id="g1513"
           style="opacity:0.25"><path
             d="M 45.636,50.639 H 17.077 v 93.424 h 28.559 z"
             style="fill:#1f3c90;fill-opacity:1;fill-rule:nonzero;stroke:none"
             id="path1511"
             inkscape:connector-curvature="0" /></g></g></g><g
       id="g1517"
       transform="matrix(1.0417024,0,0,1,-3.3322372,0)"><g
         id="g1519" /><g
         id="g1529"><g
           clip-path="url(#clipPath1523)"
           id="g1527"
           style="opacity:0.5"><path
             d="m 54.47116,144.063 27.415941,1e-5 V 50.639262 l -27.41594,0 v 93.423748"
             style="fill:#1f3c90;fill-opacity:1;fill-rule:nonzero;stroke:none;paint-order:stroke fill markers"
             id="path1525"
             inkscape:connector-curvature="0"
             sodipodi:nodetypes="ccccc" /></g></g></g><g
       id="g1531"><g
         id="g1533" /><g
         id="g1543"><g
           clip-path="url(#clipPath1537)"
           id="g1541"
           style="opacity:0.75" /></g></g><g
       id="g1545"
       transform="translate(126.0778,96.3365)"><path
         d="M 0,0 C 0,26.088 21.148,47.236 47.236,47.236 73.324,47.236 94.472,26.088 94.472,0 94.472,-26.088 73.324,-47.236 47.236,-47.236 21.148,-47.236 0,-26.088 0,0"
         style="fill:#1f3c90;fill-opacity:1;fill-rule:nonzero;stroke:none"
         id="path1547"
         inkscape:connector-curvature="0" /></g><path
       d="m 259.858,49.761 h -30.829 v 64.196 h 30.829 z"
       style="fill:#1f3c90;fill-opacity:1;fill-rule:nonzero;stroke:none"
       id="path1549"
       inkscape:connector-curvature="0" /><g
       id="g1551"
       transform="translate(323.2973,115.7257)"><path
         d="m 0,0 c 0,0 -12.056,2.324 -20.626,-4.793 0,0 -4.358,-4.358 -5.23,-5.665 l -0.29,8.689 H -55.97 v -64.196 h 31.036 v 33.652 l -0.087,2.057 c 0.645,2.09 1.787,4.14 3.814,4.836 0,0 5.955,2.034 6.391,-4.938 l 0.145,-27.744 -0.145,-7.863 h 31.375 v 44.903 c 0,0 -0.145,16.704 -16.559,21.062"
         style="fill:#1f3c90;fill-opacity:1;fill-rule:nonzero;stroke:none"
         id="path1553"
         inkscape:connector-curvature="0" /></g><g
       id="g1555"
       transform="translate(377.3355,90.5965)"><path
         d="M 0,0 C 0,0.872 0.726,2.615 0.726,2.615 2.905,7.989 7.408,7.408 7.408,7.408 13.945,8.425 14.816,0 14.816,0 Z m 27.453,20.336 c 0,0 -20.771,11.766 -41.979,-0.581 0,0 -24.548,-14.816 -13.654,-42.27 0,0 7.844,-19.028 31.666,-21.062 0,0 31.375,-2.324 38.784,21.789 l -28.616,2.178 c 0,0 -2.179,-6.827 -9.296,-4.648 0,0 -3.482,0.973 -4.114,6.242 l -0.379,4.071 h 44.438 c 0,0 4.503,20.336 -16.85,34.281"
         style="fill:#1f3c90;fill-opacity:1;fill-rule:nonzero;stroke:none"
         id="path1557"
         inkscape:connector-curvature="0" /></g><g
       id="g1559"
       transform="translate(668.4977,31.6311)"><path
         d="M 0,0 C 0,0.262 0.219,0.787 0.219,0.787 0.875,2.406 2.231,2.231 2.231,2.231 4.2,2.537 4.462,0 4.462,0 Z m 8.268,6.125 c 0,0 -6.256,3.543 -12.643,-0.175 0,0 -7.393,-4.463 -4.112,-12.731 0,0 2.362,-5.731 9.537,-6.344 0,0 9.45,-0.7 11.681,6.563 l -8.619,0.656 c 0,0 -0.656,-2.056 -2.8,-1.4 0,0 -1.048,0.293 -1.239,1.88 L -0.041,-4.2 h 13.384 c 0,0 1.357,6.125 -5.075,10.325"
         style="fill:#1f3c90;fill-opacity:1;fill-rule:nonzero;stroke:none"
         id="path1561"
         inkscape:connector-curvature="0" /></g><g
       id="g1563"
       transform="translate(480.3107,91.8484)"><path
         d="m 0,0 7.359,19.159 c 0,0 -14.084,7.36 -32.862,4.314 0,0 -13.958,-1.903 -19.667,-13.069 0,0 -6.344,-11.101 2.03,-20.776 0,0 2.918,-4.6 15.733,-7.265 0,0 6.471,-0.38 5.837,-4.694 0,0 -1.142,-3.807 -8.628,-2.031 0,0 -6.217,1.523 -13.577,6.598 l -7.739,-19.793 c 0,0 9.135,-6.798 31.34,-7.332 0,0 18.271,1.368 24.361,10.25 0,0 11.927,10.658 1.269,26.204 0,0 -5.71,5.897 -16.749,6.659 0,0 -8.881,1.522 -7.232,5.329 0,0 2.792,4.187 10.151,0.761 z"
         style="fill:#1f3c90;fill-opacity:1;fill-rule:nonzero;stroke:none"
         id="path1565"
         inkscape:connector-curvature="0" /></g><g
       id="g1567"
       transform="translate(550.1095,31.6495)"><path
         d="m 0,0 2.257,5.877 c 0,0 -4.32,2.257 -10.08,1.323 0,0 -4.281,-0.584 -6.032,-4.009 0,0 -1.946,-3.405 0.623,-6.372 0,0 0.895,-1.411 4.826,-2.229 0,0 1.984,-0.116 1.79,-1.44 0,0 -0.35,-1.167 -2.647,-0.622 0,0 -1.907,0.467 -4.164,2.023 l -2.374,-6.071 c 0,0 2.802,-2.085 9.613,-2.249 0,0 5.604,0.42 7.472,3.144 0,0 3.659,3.269 0.39,8.038 0,0 -1.752,1.809 -5.138,2.042 0,0 -2.724,0.467 -2.218,1.635 0,0 0.856,1.284 3.113,0.233 z"
         style="fill:#1f3c90;fill-opacity:1;fill-rule:nonzero;stroke:none"
         id="path1569"
         inkscape:connector-curvature="0" /></g><g
       id="g1571"
       transform="translate(539.9034,73.4927)"><path
         d="m 0,0 c -6.26,-3.214 -9.305,0.846 -9.305,0.846 -5.752,6.259 -1.861,12.688 -1.861,12.688 2.876,6.26 10.32,3.553 10.32,3.553 C 4.229,14.38 3.722,8.017 3.722,8.017 4.399,3.345 0,0 0,0 m 33.497,12.519 c 0,0 -1.692,20.64 -14.718,27.238 0,0 -13.196,7.443 -27.238,-3.215 0,0 -3.214,-2.876 -4.06,-4.567 l 0.338,8.289 -29.606,0.169 v -91.694 h 30.114 v 32.651 c 0,0 -0.508,0 0,3.384 0,0 2.368,-5.414 10.996,-9.643 0,0 14.042,-5.414 24.7,5.583 0,0 11.843,10.489 9.474,31.805"
         style="fill:#1f3c90;fill-opacity:1;fill-rule:nonzero;stroke:none"
         id="path1573"
         inkscape:connector-curvature="0" /></g><g
       id="g1575"
       transform="translate(580.9379,113.5876)"><path
         d="m 0,0 h 29.944 v -8.628 c 0,0 9.474,13.177 22.332,10.818 v -30.612 c 0,0 -7.444,4.737 -15.395,0.846 0,0 -6.091,-3.722 -5.414,-8.12 V -64.118 H 0 Z"
         style="fill:#1f3c90;fill-opacity:1;fill-rule:nonzero;stroke:none"
         id="path1577"
         inkscape:connector-curvature="0" /></g><g
       id="g1579"
       transform="translate(684.0725,76.0514)"><path
         d="m 0,0 c -3.616,-4.568 -8.057,-3.045 -8.057,-3.045 -7.232,1.649 -5.71,11.165 -5.71,11.165 1.459,5.456 5.71,6.027 5.71,6.027 C -0.888,15.416 0.952,9.136 0.952,9.136 2.157,2.411 0,0 0,0 m 27.854,20.49 c -1.793,3.887 -4.278,7.182 -7.455,9.867 -7.115,6.015 -14.622,9.621 -26.742,9.568 -8.389,-0.036 -17.122,-2.433 -23.792,-7.38 -8.505,-6.307 -13.83,-16.763 -13.83,-27.406 0,-18.991 18.694,-34.386 37.684,-34.386 10.974,0 22.205,4.568 29.31,13.006 5.059,6.007 8.541,12.939 8.248,21.38 0.317,7.296 -1.405,10.976 -3.423,15.351"
         style="fill:#1f3c90;fill-opacity:1;fill-rule:nonzero;stroke:none"
         id="path1581"
         inkscape:connector-curvature="0" /></g><g
       id="g1583"
       transform="translate(774.9233,111.6421)"><path
         d="m 0,0 v -24.615 c 0,0.252 -1.294,0.939 -1.473,1.052 -1.32,0.834 -2.749,1.507 -4.236,1.987 -1.968,0.636 -4.046,0.924 -6.112,0.783 -3.835,-0.262 -6.727,-1.484 -8.325,-5.104 -1.738,-3.937 -1.126,-8.117 2.027,-11.153 0,0 6.801,-6.598 18.119,2.284 v -25.002 c 0,0 -16.53,-9.842 -34.646,-0.958 0,0 -11.148,5.139 -15.938,18.377 0,0 -5.313,14.197 0.958,26.39 0,0 6.706,18.988 29.438,20.294 0,0 6.669,1.219 20.188,-3.484 z"
         style="fill:#1f3c90;fill-opacity:1;fill-rule:nonzero;stroke:none"
         id="path1585"
         inkscape:connector-curvature="0" /></g><g
       id="g1587"
       transform="translate(727.3253,38.6621)"><path
         d="m 0,0 v -8.028 c 0,0.082 -0.422,0.307 -0.48,0.343 -0.431,0.273 -0.897,0.492 -1.382,0.648 -0.642,0.208 -1.32,0.302 -1.993,0.256 -1.251,-0.086 -2.194,-0.484 -2.715,-1.665 -0.567,-1.283 -0.367,-2.647 0.661,-3.637 0,0 2.218,-2.152 5.909,0.745 v -8.154 c 0,0 -5.391,-3.21 -11.299,-0.312 0,0 -3.636,1.675 -5.198,5.993 0,0 -1.733,4.63 0.313,8.606 0,0 2.187,6.193 9.6,6.619 0,0 2.175,0.397 6.584,-1.136 z"
         style="fill:#1f3c90;fill-opacity:1;fill-rule:nonzero;stroke:none"
         id="path1589"
         inkscape:connector-curvature="0" /></g><g
       id="g1591"
       transform="translate(554.5607,22.5802)"><path
         d="m 0,0 c 0,2.626 2.417,4.755 5.399,4.755 2.982,0 5.399,-2.129 5.399,-4.755 0,-2.626 -2.417,-4.755 -5.399,-4.755 C 2.417,-4.755 0,-2.626 0,0"
         style="fill:#1f3c90;fill-opacity:1;fill-rule:nonzero;stroke:none"
         id="path1593"
         inkscape:connector-curvature="0" /></g><g
       id="g1595"
       transform="translate(594.994,22.5802)"><path
         d="m 0,0 c 0,2.626 2.417,4.755 5.399,4.755 2.982,0 5.399,-2.129 5.399,-4.755 0,-2.626 -2.417,-4.755 -5.399,-4.755 C 2.417,-4.755 0,-2.626 0,0"
         style="fill:#1f3c90;fill-opacity:1;fill-rule:nonzero;stroke:none"
         id="path1597"
         inkscape:connector-curvature="0" /></g><g
       id="g1599"
       transform="translate(729.7595,22.6352)"><path
         d="m 0,0 c 0,2.626 2.417,4.755 5.399,4.755 2.982,0 5.399,-2.129 5.399,-4.755 0,-2.626 -2.417,-4.755 -5.399,-4.755 C 2.417,-4.755 0,-2.626 0,0"
         style="fill:#1f3c90;fill-opacity:1;fill-rule:nonzero;stroke:none"
         id="path1601"
         inkscape:connector-curvature="0" /></g><g
       id="g1603"
       transform="translate(764.0381,22.6352)"><path
         d="m 0,0 c 0,2.626 2.417,4.755 5.399,4.755 2.982,0 5.399,-2.129 5.399,-4.755 0,-2.626 -2.417,-4.755 -5.399,-4.755 C 2.417,-4.755 0,-2.626 0,0"
         style="fill:#1f3c90;fill-opacity:1;fill-rule:nonzero;stroke:none"
         id="path1605"
         inkscape:connector-curvature="0" /></g><g
       id="g1607"
       transform="translate(582.0157,26.7624)"><path
         d="m 0,0 c 0,0 -0.855,-1.347 -2.952,-0.932 0,0 -2.305,0.725 -1.58,3.884 0,0 0.492,1.528 1.605,1.684 0,0 1.943,0.647 2.927,-1.088 C 0,3.548 0.803,2.072 0,0 M 0.369,11.837 V 9.088 c 0,0 -2.459,3.638 -6.773,3.215 0,0 -3.13,0.084 -5.16,-2.834 -2.03,-2.918 -2.411,-6.048 -2.199,-9.347 0,0 0.338,-5.752 4.441,-7.951 0,0 4.229,-2.454 7.782,0.507 0,0 1.395,0.931 2.114,2.157 v -2.876 h 8.925 v 19.878 z"
         style="fill:#1f3c90;fill-opacity:1;fill-rule:nonzero;stroke:none"
         id="path1609"
         inkscape:connector-curvature="0" /></g><g
       id="g1611"
       transform="translate(646.0076,26.7624)"><path
         d="m 0,0 c 0,0 -0.855,-1.347 -2.952,-0.932 0,0 -2.305,0.725 -1.58,3.884 0,0 0.492,1.528 1.606,1.684 0,0 1.942,0.647 2.926,-1.088 C 0,3.548 0.803,2.072 0,0 M 0.074,21.761 0.369,9.088 c 0,0 -2.459,3.638 -6.773,3.215 0,0 -3.13,0.084 -5.16,-2.834 -2.03,-2.918 -2.411,-6.048 -2.199,-9.347 0,0 0.338,-5.752 4.441,-7.951 0,0 4.229,-2.454 7.782,0.507 0,0 1.395,0.931 2.114,2.157 v -2.876 h 8.925 v 29.802 z"
         style="fill:#1f3c90;fill-opacity:1;fill-rule:nonzero;stroke:none"
         id="path1613"
         inkscape:connector-curvature="0" /></g><g
       id="g1615"
       transform="translate(741.1288,38.499)"><path
         d="m 0,0 8.468,-19.808 h 8.689 L 25.92,0 H 15.316 L 12.96,-9.615 9.964,0 Z"
         style="fill:#1f3c90;fill-opacity:1;fill-rule:nonzero;stroke:none"
         id="path1617"
         inkscape:connector-curvature="0" /></g><g
       id="g1619"
       transform="translate(228.8718,134.1314)"><path
         d="m 0,0 c 0,7.573 6.972,13.712 15.572,13.712 8.6,0 15.571,-6.139 15.571,-13.712 0,-7.573 -6.971,-13.712 -15.571,-13.712 C 6.972,-13.712 0,-7.573 0,0"
         style="fill:#1f3c90;fill-opacity:1;fill-rule:nonzero;stroke:none"
         id="path1621"
         inkscape:connector-curvature="0" /></g><path
       style="opacity:0.75;fill:#1f3c90;fill-opacity:1;fill-rule:nonzero;stroke:none;stroke-width:0.75590551;stroke-miterlimit:4;stroke-dasharray:none"
       d="M 119.659,72.607979 V 197.17298 h 38.07928 V 72.607979 Z"
       transform="matrix(0.75000002,0,0,-0.75000002,0,198.519)"
       id="path1539"
       inkscape:connector-curvature="0"
       sodipodi:nodetypes="ccccc" /></g></svg>
